/* XPM */
static const char * Module_xpm[] = {
"32 32 3 1",
" 	c #FFFFFF",
".	c #000000",
"+	c #FFC90E",
"                                ",
"                                ",
"                                ",
"                                ",
" .............................  ",
" .+++++++++++++++++++++++++++.  ",
" .+++++++++++++++++++++++++++.  ",
" .+++++++++++++++++++++++++++.  ",
" .+++++++++++++++++++++++++++.  ",
" .+++++++++++++++++++++++++++.  ",
" .............................  ",
" .+++++++++++++++++++++++++++.  ",
" .+++++++++++++++++++++++++++.  ",
" .+++++++++++++++++++++++++++.  ",
" .+++++++++++++++++++++++++++.  ",
" .+++++++++++++++++++++++++++.  ",
" .+++++++++++++++++++++++++++.  ",
" .............................  ",
" .+++++++++++++++++++++++++++.  ",
" .+++++++++++++++++++++++++++.  ",
" .+++++++++++++++++++++++++++.  ",
" .+++++++++++++++++++++++++++.  ",
" .+++++++++++++++++++++++++++.  ",
" .+++++++++++++++++++++++++++.  ",
" .+++++++++++++++++++++++++++.  ",
" .............................  ",
"                                ",
"                                ",
"                                ",
"                                ",
"                                ",
"                                "};
